HIERARCHY
ROOT root
{
	OFFSET 0.000000 0.000000 0.000000
	CHANNELS 6 Xposition Yposition Zposition Zrotation Yrotation Xrotation
	JOINT lhip
	{
		OFFSET 0.058581 -0.082280 -0.017664
		CHANNELS 3 Zrotation Yrotation Xrotation
		JOINT lknee
		{
			OFFSET 0.043451 -0.386469 0.008037
			CHANNELS 3 Zrotation Yrotation Xrotation
			JOINT lankle
			{
				OFFSET -0.014790 -0.426874 -0.037428
				CHANNELS 3 Zrotation Yrotation Xrotation
				JOINT ltoe
				{
					OFFSET 0.041054 -0.060286 0.122042
					CHANNELS 3 Zrotation Yrotation Xrotation
					End Site
					{
						OFFSET 0.000000 0.000000 0.000000
					}
				}
			}
		}
	}
	JOINT rhip
	{
		OFFSET -0.060310 -0.090513 -0.013543
		CHANNELS 3 Zrotation Yrotation Xrotation
		JOINT rknee
		{
			OFFSET -0.043257 -0.383688 -0.004843
			CHANNELS 3 Zrotation Yrotation Xrotation
			JOINT rankle
			{
				OFFSET 0.019056 -0.420046 -0.034562
				CHANNELS 3 Zrotation Yrotation Xrotation
				JOINT rtoe
				{
					OFFSET -0.034840 -0.062106 0.130323
					CHANNELS 3 Zrotation Yrotation Xrotation
					End Site
					{
						OFFSET 0.000000 0.000000 0.000000
					}
				}
			}
		}
	}
	JOINT lowerback
	{
		OFFSET 0.004439 0.124404 -0.038385
		CHANNELS 3 Zrotation Yrotation Xrotation
		JOINT upperback
		{
			OFFSET 0.004488 0.137956 0.026820
			CHANNELS 3 Zrotation Yrotation Xrotation
			JOINT chest
			{
				OFFSET -0.002265 0.056032 0.002855
				CHANNELS 3 Zrotation Yrotation Xrotation
				JOINT lowerneck
				{
					OFFSET -0.013390 0.211636 -0.033468
					CHANNELS 3 Zrotation Yrotation Xrotation
					JOINT upperneck
					{
						OFFSET 0.010113 0.088937 0.050410
						CHANNELS 3 Zrotation Yrotation Xrotation
						End Site
						{
							OFFSET 0.000000 0.000000 0.000000
						}
					}
				}
				JOINT lclavicle
				{
					OFFSET 0.071702 0.114000 -0.018898
					CHANNELS 3 Zrotation Yrotation Xrotation
					JOINT lshoulder
					{
						OFFSET 0.122921 0.045205 -0.019046
						CHANNELS 3 Zrotation Yrotation Xrotation
						JOINT lelbow
						{
							OFFSET 0.255332 -0.015649 -0.022946
							CHANNELS 3 Zrotation Yrotation Xrotation
							JOINT lwrist
							{
								OFFSET 0.265709 0.012698 -0.007375
								CHANNELS 3 Zrotation Yrotation Xrotation
								End Site
								{
									OFFSET 0.000000 0.000000 0.000000
								}
							}
						}
					}
				}
				JOINT rclavicle
				{
					OFFSET -0.082954 0.112472 -0.023707
					CHANNELS 3 Zrotation Yrotation Xrotation
					JOINT rshoulder
					{
						OFFSET -0.113228 0.046853 -0.008472
						CHANNELS 3 Zrotation Yrotation Xrotation
						JOINT relbow
						{
							OFFSET -0.260127 -0.014369 -0.031269
							CHANNELS 3 Zrotation Yrotation Xrotation
							JOINT rwrist
							{
								OFFSET -0.269108 0.006794 -0.006027
								CHANNELS 3 Zrotation Yrotation Xrotation
								End Site
								{
									OFFSET 0.000000 0.000000 0.000000
								}
							}
						}
					}
				}
			}
		}
	}
}
MOTION
Frames: 17
Frame Time: 0.033333
0.018837 0.470515 1.000724 175.992689 -1.047761 84.603337 5.509141 3.382665 6.592502 -5.365539 -3.300771 2.389028 -1.314785 8.245947 -5.685516 0.000000 -0.000000 0.000000 -5.394889 -4.029321 3.939662 2.581377 0.834371 8.596590 4.156115 -4.703377 -8.139647 0.000000 -0.000000 0.000000 -0.264564 1.211449 4.417061 0.428681 -1.824119 5.181632 -1.063324 0.594028 0.839540 2.351780 0.840092 -4.020695 3.744068 -0.988874 -4.132936 -29.172331 1.895334 2.909552 -49.285649 -5.657704 7.903821 3.589851 -22.961957 3.749966 -6.734178 -16.716274 -17.644163 28.339510 0.548712 4.813639 50.532218 5.754908 13.200072 -7.720622 28.355188 5.363121 15.079182 10.867264 -4.956595 
0.018453 0.470790 1.000826 176.140641 -1.117398 84.614125 5.386886 3.310288 6.618583 -5.333412 -3.326488 2.300771 -1.265332 8.222074 -5.609423 0.000000 -0.000000 0.000000 -5.485501 -3.822035 3.980943 2.599869 0.588984 8.565374 4.243284 -4.855964 -8.159572 0.000000 -0.000000 0.000000 -0.376328 1.226746 4.340195 0.524470 -1.960038 5.325420 -1.070086 0.647004 0.739126 2.215219 0.848710 -3.909530 3.848092 -1.096623 -4.108259 -29.291102 1.628450 2.891927 -48.857415 -5.413585 7.991852 3.187404 -24.130425 4.268012 -7.225820 -16.694627 -17.422236 28.404691 0.093149 4.715080 49.874798 4.844303 13.168496 -8.303065 32.923543 5.974626 16.068102 10.787196 -5.384658 
0.018420 0.470729 1.000890 176.142107 -1.115071 84.716664 5.391862 3.240972 6.495171 -5.342496 -3.142077 2.317941 -1.228578 8.149168 -5.572558 0.000000 -0.000000 0.000000 -5.438961 -3.789545 3.856590 2.555615 0.534130 8.598232 4.301576 -4.896123 -8.227322 0.000000 -0.000000 0.000000 -0.375215 1.321444 4.108711 0.577360 -2.078375 5.502672 -1.142974 0.695774 0.692726 2.122572 0.858339 -3.761822 3.922615 -1.102168 -4.055683 -29.188787 1.294621 2.891753 -48.293424 -5.164567 8.201635 2.594188 -26.693389 5.400134 -7.300567 -16.782480 -17.252302 28.116859 -0.144941 4.654361 49.215163 4.141055 13.343318 -8.969357 39.140611 6.908566 16.180724 11.300727 -5.203729 
0.018058 0.470382 1.001140 176.059417 -1.242403 84.752556 5.220756 3.241541 6.444174 -5.336085 -3.024987 2.324536 -1.198358 8.090057 -5.542863 0.000000 -0.000000 0.000000 -5.606455 -3.799820 3.768949 2.557394 0.608826 8.641220 4.337533 -4.857302 -8.229408 0.000000 -0.000000 0.000000 -0.430010 1.397806 3.942458 0.510475 -2.165135 5.661008 -1.278807 0.731922 0.556476 2.212440 0.780919 -3.497179 3.963971 -1.068647 -3.864930 -29.028546 0.836663 2.914870 -47.468773 -5.056967 8.601835 2.018046 -30.701055 6.666861 -7.153187 -17.093482 -17.158951 27.493504 -0.025421 4.419957 48.522047 3.761874 13.720184 -9.678397 46.063187 7.328814 15.936711 11.994493 -6.172294 
0.017927 0.469516 1.001281 175.952665 -1.282411 84.716716 5.164093 3.228279 6.427568 -5.299186 -2.769457 2.341211 -1.169496 7.921731 -5.497942 0.000000 -0.000000 0.000000 -5.604671 -3.624824 3.671915 2.470911 0.395717 8.757821 4.455910 -4.810568 -8.182253 0.000000 -0.000000 0.000000 -0.438265 1.426271 3.831734 0.495724 -2.216518 5.871588 -1.423797 0.775937 0.404409 2.337796 0.742533 -3.151198 3.959755 -1.105629 -3.666550 -28.658960 0.006459 2.710053 -46.600657 -5.320132 9.438758 1.341084 -35.624917 8.187816 -7.648400 -17.581408 -17.162917 26.601273 0.630806 4.010285 47.718917 4.288790 14.171812 -10.909208 53.186324 6.855246 16.729132 12.509405 -7.698303 
0.017786 0.467881 1.001436 175.983421 -1.294611 84.684547 5.156652 3.213868 6.239775 -5.290447 -2.516802 2.511768 -1.198237 7.617280 -5.415125 0.000000 -0.000000 0.000000 -5.662540 -3.797577 3.517852 2.473223 0.262008 8.922278 4.503811 -4.610648 -8.153112 0.000000 -0.000000 0.000000 -0.453438 1.482223 3.794732 0.530703 -2.445369 5.968928 -1.521332 0.839954 0.207282 2.443258 0.825840 -2.906085 3.890022 -1.286533 -3.091143 -28.030881 -1.485319 2.428083 -45.576585 -6.210518 10.297075 0.027743 -40.767794 10.255346 -6.918675 -17.689214 -16.370563 25.505109 1.760783 3.530254 46.629226 5.716397 14.482598 -12.671795 60.750752 6.384369 16.440965 13.377463 -7.738073 
0.017884 0.465891 1.001771 175.914054 -1.329051 84.602329 5.113849 3.207687 6.125995 -5.234438 -2.120198 2.643603 -1.260131 7.245936 -5.396687 0.000000 -0.000000 0.000000 -5.673017 -3.683938 3.377690 2.396884 -0.005184 9.104121 4.578969 -4.367429 -8.102780 0.000000 -0.000000 0.000000 -0.466772 1.456715 3.753739 0.505389 -2.589947 6.034043 -1.710416 0.944692 0.038746 2.754735 1.148363 -2.523412 3.673819 -1.384933 -2.569988 -27.416971 -3.089051 1.895673 -44.286456 -8.059663 11.118126 -1.318449 -45.879715 12.298714 -6.738085 -18.850155 -16.619756 24.310497 3.374556 2.766637 45.438431 8.438617 14.938646 -15.532331 67.677554 4.518444 16.625908 14.553971 -8.603339 
0.017576 0.464716 1.001752 176.163138 -1.311567 84.525632 5.112735 3.168729 6.010376 -5.178579 -1.880673 2.759945 -1.289933 6.779039 -5.342985 0.000000 -0.000000 0.000000 -5.739073 -3.939991 3.503944 2.396497 -0.234585 8.954139 4.622472 -4.102544 -7.973679 0.000000 -0.000000 0.000000 -0.329485 1.517896 3.319080 0.414152 -3.076659 6.420467 -1.923756 0.927091 -0.229287 3.056874 1.298823 -1.945429 3.583296 -1.471485 -1.990583 -26.546518 -5.595446 1.388782 -43.067284 -10.211316 12.034963 -1.880012 -50.582116 13.688644 -6.192548 -19.291320 -16.526869 22.785374 5.816686 2.034365 44.178754 12.199781 15.040628 -20.170361 73.658249 0.531957 16.619401 15.414161 -10.263582 
0.018111 0.461997 1.002066 175.913953 -1.446735 84.346841 4.998582 3.299144 5.982459 -5.082190 -1.511390 2.817969 -1.476797 6.447080 -5.234646 0.000000 -0.000000 0.000000 -5.830319 -3.851798 3.380529 2.281493 -0.376755 9.120335 4.721177 -3.820419 -7.858082 0.000000 -0.000000 0.000000 -0.493627 1.535049 3.609649 0.291448 -3.094978 6.103082 -1.936277 1.050169 -0.477455 3.445426 1.622446 -1.683060 3.417977 -1.566143 -0.901297 -25.000192 -8.473967 0.513906 -42.293374 -13.133648 13.039389 -2.757117 -54.001100 15.530226 -5.135433 -19.583399 -15.699437 20.985059 8.984124 1.005569 42.831573 16.869363 15.129864 -28.175194 77.344898 -7.290755 16.540951 16.267780 -10.889861 
0.018554 0.459877 1.002655 175.848718 -1.454786 84.158417 5.018640 3.394887 5.936975 -5.002337 -1.146771 2.957845 -1.687628 6.053510 -5.211211 0.000000 -0.000000 0.000000 -5.781107 -3.913655 3.368980 2.179363 -0.583317 9.206385 4.736344 -3.570744 -7.673645 0.000000 -0.000000 0.000000 -0.487225 1.615034 3.638402 0.133807 -3.212179 6.031111 -1.958888 1.108553 -0.841836 3.976697 2.007896 -1.360829 3.238506 -1.818179 0.281400 -23.415817 -11.830706 -0.333568 -41.205393 -16.556937 13.865639 -2.836179 -56.547252 16.756592 -5.211635 -20.077730 -14.716047 19.067978 12.656929 0.070292 40.733212 22.275989 14.579611 -33.935252 78.938473 -12.667834 16.364244 17.452653 -11.674961 
0.018863 0.458196 1.003127 175.955180 -1.440844 83.981113 5.043226 3.505188 5.808163 -4.883366 -0.837742 3.210996 -1.856861 5.487024 -5.210254 0.000000 -0.000000 0.000000 -5.728424 -3.914256 3.486668 2.114363 -0.829866 9.067398 4.789168 -3.407765 -7.474157 0.000000 -0.000000 0.000000 -0.456927 1.656534 3.735488 -0.045664 -3.391844 5.795360 -1.924659 1.142251 -1.298063 4.449788 2.037917 -0.988340 3.145832 -2.085271 1.423376 -21.553658 -15.412563 -1.137723 -40.118403 -20.471177 14.284316 -2.809445 -57.609253 17.330055 -6.631006 -21.957892 -12.776343 16.676414 16.674068 -0.968238 38.551195 27.633500 13.699305 -35.748944 78.750316 -15.036230 17.063596 18.130567 -12.104639 
0.019492 0.457020 1.003192 176.007246 -1.359804 83.969565 5.206383 3.640050 5.629694 -4.865691 -0.751084 3.262048 -2.072252 5.248439 -5.164994 0.000000 -0.000000 0.000000 -5.539683 -3.873009 3.389543 2.060728 -0.794543 9.009442 4.847526 -3.555370 -7.214497 0.000000 -0.000000 0.000000 -0.407047 1.711157 3.647404 -0.181016 -3.353658 5.609616 -1.780259 1.063406 -1.634810 4.685679 1.957633 -0.997302 3.123093 -2.211101 2.335748 -19.382094 -18.959041 -2.254529 -38.925047 -24.455282 14.791148 -2.841857 -57.947095 17.745847 -6.585896 -22.200256 -11.072676 13.933143 20.558113 -2.189498 35.366763 32.913825 12.078763 -29.852307 77.200951 -10.236616 17.410604 18.994839 -13.501611 
0.019947 0.456402 1.003523 176.110493 -1.341763 83.808449 5.241507 3.658811 5.695715 -4.786825 -0.776025 3.188742 -2.324959 5.219715 -5.056397 0.000000 -0.000000 0.000000 -5.444853 -3.933715 3.517243 2.026756 -0.691365 8.866830 4.827340 -3.734496 -7.091935 0.000000 -0.000000 0.000000 -0.341460 1.764552 3.812954 -0.447238 -3.417542 5.233615 -1.632731 1.065115 -1.907154 4.772821 1.751327 -0.882014 3.340843 -2.093600 2.903100 -16.937561 -22.633013 -3.488786 -37.480554 -28.077760 15.187840 -2.479585 -57.434923 17.213179 -6.695556 -22.630184 -9.766270 10.941414 24.388304 -3.576708 31.936055 37.289124 10.280460 -23.215193 74.848190 -4.889934 18.070154 19.303581 -13.853346 
0.020532 0.456018 1.003971 176.296471 -1.352744 83.700268 5.256149 3.801498 5.684995 -4.702522 -0.857288 3.225562 -2.651349 5.060572 -5.006663 0.000000 -0.000000 0.000000 -5.401935 -4.011552 3.647584 2.024908 -0.654056 8.726419 4.977548 -3.904154 -6.910728 0.000000 -0.000000 0.000000 -0.209368 1.841248 3.958218 -0.878046 -3.509038 5.074638 -1.528367 1.081059 -2.268609 4.878883 1.522102 -1.144462 3.694347 -2.123908 3.435476 -14.497507 -25.952298 -4.711416 -35.657659 -31.647837 14.912165 -1.861434 -56.365859 16.583306 -7.515151 -24.208919 -7.286520 7.987257 27.951061 -5.008467 27.705608 40.931007 7.750646 -16.655826 72.129852 0.739529 19.729056 20.497325 -13.165346 
0.020867 0.456076 1.004246 176.431512 -1.312369 83.678519 5.327428 3.860814 5.641816 -4.678888 -0.982093 3.221072 -2.893046 5.099058 -5.019405 0.000000 -0.000000 0.000000 -5.285360 -4.021802 3.745264 2.029485 -0.543480 8.492605 5.047082 -4.215052 -6.760732 0.000000 -0.000000 0.000000 -0.223395 1.667907 4.273330 -1.108422 -3.562110 4.494749 -1.337635 1.184946 -2.618258 4.942260 1.152096 -1.263761 3.997636 -1.849322 3.885345 -12.225402 -28.802277 -5.847950 -33.935837 -34.419551 14.698478 -0.326029 -55.113297 14.595155 -7.732480 -25.150749 -6.398147 4.705361 31.178711 -6.482998 24.332238 43.644651 5.970462 -13.058722 68.718920 2.621977 19.855379 21.379872 -14.581092 
0.021151 0.456468 1.004490 176.624494 -1.246212 83.712712 5.408308 3.860955 5.592740 -4.655586 -1.160830 3.173486 -3.058565 5.112033 -4.941070 0.000000 -0.000000 0.000000 -5.177339 -4.165045 3.809298 2.026379 -0.403880 8.333124 5.063330 -4.415649 -6.618484 0.000000 -0.000000 0.000000 -0.116149 1.543068 4.379000 -1.307833 -3.633640 4.164527 -1.194063 1.072461 -2.819307 4.738641 0.963653 -1.510860 4.194053 -1.640535 4.007922 -10.232423 -30.750772 -7.299071 -32.421352 -36.777067 14.201658 0.711272 -53.989264 13.366636 -8.325895 -25.709196 -5.558237 1.996636 33.663017 -7.804718 20.965255 46.055858 3.948316 -9.553152 65.887453 5.265517 20.439773 21.607982 -12.922322 
0.021498 0.457095 1.004568 176.832558 -1.198215 83.777760 5.472985 3.805846 5.498322 -4.638848 -1.259550 3.182857 -3.269470 5.137021 -4.901665 0.000000 -0.000000 0.000000 -5.046692 -4.203796 3.859895 2.005350 -0.416888 8.146292 5.022883 -4.617443 -6.501672 0.000000 -0.000000 0.000000 -0.217965 1.575827 4.341307 -1.408333 -3.744363 3.974058 -1.079869 1.105225 -2.959764 4.899621 0.958235 -1.662543 4.474544 -1.628368 3.893645 -8.432783 -32.411970 -8.340121 -31.047374 -38.796924 13.418471 1.869586 -53.080861 11.740095 -8.615049 -26.360830 -4.932384 -0.028198 35.070862 -8.989183 18.791563 47.945459 2.107313 -7.507339 63.603550 7.315209 21.280281 21.644406 -12.085460 
